<?xml version="1.0" encoding="iso-8859-1"?>
<!-- Generator: Adobe Illustrator 19.0.0, SVG Export Plug-In . SVG Version: 6.00 Build 0)  -->
<svg version="1.1" id="Capa_1" xmlns="http://www.w3.org/2000/svg" xmlns:xlink="http://www.w3.org/1999/xlink" x="0px" y="0px"
	 viewBox="0 0 480 480" style="enable-background:new 0 0 480 480;" xml:space="preserve">
<g>
	<g>
		<path d="M459.777,347.328c-4.288-5.248-11.52-7.232-17.824-4.96c-17.76,6.368-37.024,9.632-57.312,9.632
			c-97.024,0-176-78.976-176-176c0-58.4,28.832-112.768,77.12-145.472c5.472-3.712,8.096-10.4,6.624-16.832
			S285.601,2.4,279.073,1.44C271.585,0.352,264.129,0,256.641,0c-132.352,0-240,107.648-240,240s107.648,240,240,240
			c84,0,160.416-42.688,204.352-114.208C464.545,360,464.065,352.608,459.777,347.328z M256.641,448c-114.688,0-208-93.312-208-208
			c0-106.816,80.96-195.104,184.704-206.688c-36.032,38.112-56.704,88.96-56.704,142.688c0,114.688,93.312,208,208,208
			c7.936,0,15.744-0.448,23.392-1.248C369.249,424.192,315.073,448,256.641,448z"/>
	</g>
</g>
<g>
</g>
<g>
</g>
<g>
</g>
<g>
</g>
<g>
</g>
<g>
</g>
<g>
</g>
<g>
</g>
<g>
</g>
<g>
</g>
<g>
</g>
<g>
</g>
<g>
</g>
<g>
</g>
<g>
</g>
</svg>
