<?xml version="1.0" encoding="iso-8859-1"?>
<!-- Generator: Adobe Illustrator 19.0.0, SVG Export Plug-In . SVG Version: 6.00 Build 0)  -->
<svg version="1.1" id="Capa_1" xmlns="http://www.w3.org/2000/svg" xmlns:xlink="http://www.w3.org/1999/xlink" x="0px" y="0px"
	 viewBox="0 0 512 512" style="enable-background:new 0 0 512 512;" xml:space="preserve">
<g>
	<g>
		<path d="M336,304c-1.408,0-2.784,0.032-4.128,0.096C317.632,248.288,267.008,208,208,208c-45.6,0-87.968,24.8-110.752,64
			C42.56,271.936,0,314.656,0,368c0,52.928,43.072,96,96,96h240c44.128,0,80-35.872,80-80S380.128,304,336,304z M336,432H96
			c-35.296,0-64-28.704-64-64c0-35.296,28.704-64,64-64c3.04,0,6.08,0.288,9.12,0.544c6.848,0.288,13.056-3.04,15.904-9.12
			C136.896,261.76,171.04,240,208,240c48.416,0,89.312,36.192,95.136,84.192c0.576,4.64,3.168,8.864,7.104,11.424
			c3.968,2.656,8.832,3.296,13.376,1.984c3.52-1.056,7.68-1.6,12.384-1.6c26.464,0,48,21.536,48,48S362.464,432,336,432z"/>
	</g>
</g>
<g>
	<g>
		<path d="M412.864,176.032C397.952,102.016,333.088,48,256,48c-64.032,0-121.504,38.112-146.688,96.032
			C51.648,145.376,5.152,189.088,0.64,248.32c0,8.576,6.784,15.488,15.36,15.808c9.152,0.416,15.936-6.336,16.608-14.88
			C35.84,207.488,69.984,176,112,176c1.28,0,3.392,0,4.128,0.16c8.096,2.08,16.288-2.432,19.008-10.272
			C152.928,114.528,201.504,80,256,80c66.016,0,120.8,49.536,127.456,115.232c0.416,4.448,2.72,8.512,6.304,11.2
			c3.584,2.656,8.16,3.68,12.544,2.912c4.192-0.8,8.992-1.344,13.696-1.344c35.296,0,64,28.704,64,64
			c0,22.976-11.744,43.52-31.392,54.944c-7.68,4.48-10.272,14.272-5.824,21.888c3.008,5.12,8.352,7.968,13.856,7.968
			c2.72,0,5.472-0.672,8.032-2.144C493.888,337.664,512,305.984,512,272C512,218.016,468.8,174.88,412.864,176.032z"/>
	</g>
</g>
<g>
</g>
<g>
</g>
<g>
</g>
<g>
</g>
<g>
</g>
<g>
</g>
<g>
</g>
<g>
</g>
<g>
</g>
<g>
</g>
<g>
</g>
<g>
</g>
<g>
</g>
<g>
</g>
<g>
</g>
</svg>
