<?xml version="1.0" encoding="iso-8859-1"?>
<!-- Generator: Adobe Illustrator 19.0.0, SVG Export Plug-In . SVG Version: 6.00 Build 0)  -->
<svg version="1.1" id="Capa_1" xmlns="http://www.w3.org/2000/svg" xmlns:xlink="http://www.w3.org/1999/xlink" x="0px" y="0px"
	 viewBox="0 0 512 512" style="enable-background:new 0 0 512 512;" xml:space="preserve">
<g>
	<g>
		<path d="M412.864,160.032C397.952,86.016,333.088,32,256,32c-64.032,0-121.504,38.112-146.688,96.032
			C48.8,129.472,0,179.136,0,240c0,61.76,50.24,112,112,112h304c52.928,0,96-43.072,96-96C512,202.016,468.8,158.88,412.864,160.032
			z M416,320H112c-44.096,0-80-35.872-80-80c0-44.096,35.904-80,80-80c1.28,0,3.392,0,4.128,0.16
			c8.096,2.08,16.288-2.432,19.008-10.272C152.928,98.528,201.504,64,256,64c66.016,0,120.8,49.536,127.456,115.232
			c0.416,4.448,2.72,8.512,6.304,11.2c3.584,2.656,8.16,3.68,12.544,2.912c4.192-0.8,8.992-1.344,13.696-1.344
			c35.296,0,64,28.704,64,64C480,291.296,451.296,320,416,320z"/>
	</g>
</g>
<g>
	<g>
		<path d="M144,384c-26.464,0-48,21.536-48,48s21.536,48,48,48s48-21.536,48-48S170.464,384,144,384z M144,448
			c-8.832,0-16-7.2-16-16s7.168-16,16-16c8.832,0,16,7.2,16,16S152.832,448,144,448z"/>
	</g>
</g>
<g>
	<g>
		<path d="M368,384c-26.464,0-48,21.536-48,48s21.536,48,48,48s48-21.536,48-48S394.464,384,368,384z M368,448c-8.8,0-16-7.2-16-16
			s7.2-16,16-16s16,7.2,16,16S376.8,448,368,448z"/>
	</g>
</g>
<g>
</g>
<g>
</g>
<g>
</g>
<g>
</g>
<g>
</g>
<g>
</g>
<g>
</g>
<g>
</g>
<g>
</g>
<g>
</g>
<g>
</g>
<g>
</g>
<g>
</g>
<g>
</g>
<g>
</g>
</svg>
