<?xml version="1.0" encoding="iso-8859-1"?>
<!-- Generator: Adobe Illustrator 19.0.0, SVG Export Plug-In . SVG Version: 6.00 Build 0)  -->
<svg version="1.1" id="Capa_1" xmlns="http://www.w3.org/2000/svg" xmlns:xlink="http://www.w3.org/1999/xlink" x="0px" y="0px"
	 viewBox="0 0 512 512" style="enable-background:new 0 0 512 512;" xml:space="preserve">
<g>
	<g>
		<path d="M443.104,363.328c-4.288-5.248-11.52-7.232-17.824-4.96c-38.912,13.984-87.52,12.608-127.68-5.024
			c-8.032-3.424-17.568,0.16-21.088,8.224c-3.52,8.096,0.128,17.536,8.224,21.088c33.088,14.496,71.456,19.808,106.656,16.096
			C352.608,440.192,298.432,464,240,464c-114.688,0-208-93.312-208-208c0-106.848,80.96-195.136,184.768-206.72
			c-6.272,6.688-12.16,13.824-17.6,21.376c-5.152,7.168-3.52,17.184,3.648,22.336c7.168,5.12,17.152,3.52,22.304-3.648
			c12.096-16.8,27.296-31.584,43.968-42.784c5.472-3.712,8.128-10.368,6.656-16.832c-1.472-6.464-6.752-11.328-13.312-12.288
			C254.944,16.352,247.488,16,240,16C107.648,16,0,123.648,0,256s107.648,240,240,240c84,0,160.416-42.688,204.32-114.208
			C447.872,376,447.392,368.608,443.104,363.328z"/>
	</g>
</g>
<g>
	<g>
		<path d="M427.872,176.096C413.664,120.288,363.008,80,304,80c-45.6,0-87.968,24.8-110.752,64c-0.416,0-0.832,0-1.248,0
			c-52.928,0-96,43.072-96,96c0,52.928,43.072,96,96,96h240c44.128,0,80-35.872,80-80C512,210.528,473.28,173.952,427.872,176.096z
			 M432,304H192c-35.296,0-64-28.704-64-64c0-35.296,28.704-64,64-64c3.008,0,6.048,0.288,9.088,0.576
			c6.944,0.704,13.088-3.04,15.936-9.12C232.896,133.76,267.04,112,304,112c48.416,0,89.312,36.192,95.136,84.192
			c0.576,4.672,3.168,8.832,7.072,11.424c3.936,2.592,8.8,3.328,13.312,1.984c3.616-1.056,7.808-1.6,12.48-1.6
			c26.464,0,48,21.536,48,48S458.464,304,432,304z"/>
	</g>
</g>
<g>
</g>
<g>
</g>
<g>
</g>
<g>
</g>
<g>
</g>
<g>
</g>
<g>
</g>
<g>
</g>
<g>
</g>
<g>
</g>
<g>
</g>
<g>
</g>
<g>
</g>
<g>
</g>
<g>
</g>
</svg>
