<?xml version="1.0" encoding="iso-8859-1"?>
<!-- Generator: Adobe Illustrator 19.0.0, SVG Export Plug-In . SVG Version: 6.00 Build 0)  -->
<svg version="1.1" id="Capa_1" xmlns="http://www.w3.org/2000/svg" xmlns:xlink="http://www.w3.org/1999/xlink" x="0px" y="0px"
	 viewBox="0 0 512 512" style="enable-background:new 0 0 512 512;" xml:space="preserve">
<g>
	<g>
		<path d="M412.864,144.032C397.952,70.016,333.088,16,256,16c-64.032,0-121.504,38.112-146.688,96.032
			C48.8,113.472,0,163.136,0,224c0,61.76,50.24,112,112,112h304c52.928,0,96-43.072,96-96C512,186.016,468.8,142.88,412.864,144.032
			z M416,304H112c-44.096,0-80-35.872-80-80c0-44.096,35.904-80,80-80c1.28,0,3.392,0,4.128,0.16
			c8.096,2.08,16.288-2.432,19.008-10.272C152.928,82.528,201.504,48,256,48c66.016,0,120.8,49.536,127.456,115.232
			c0.416,4.448,2.72,8.512,6.304,11.2c3.584,2.656,8.16,3.68,12.544,2.912c4.192-0.8,8.992-1.344,13.696-1.344
			c35.296,0,64,28.704,64,64C480,275.296,451.296,304,416,304z"/>
	</g>
</g>
<g>
	<g>
		<path d="M413.152,374.912c-5.92-8.64-20.352-8.64-26.304,0C376.384,390.048,352,427.552,352,448c0,26.464,21.536,48,48,48
			s48-21.536,48-48C448,427.552,423.616,390.048,413.152,374.912z M400,464c-8.8,0-16-7.2-16-15.968
			c0.128-4.896,6.784-18.848,16-34.368c9.216,15.52,15.84,29.44,16,34.336C416,456.8,408.8,464,400,464z"/>
	</g>
</g>
<g>
	<g>
		<path d="M269.152,374.912c-5.952-8.64-20.32-8.64-26.336,0C232.352,390.048,208,427.552,208,448c0,26.464,21.536,48,48,48
			s48-21.536,48-48C304,427.552,279.616,390.048,269.152,374.912z M256,464c-8.832,0-16-7.2-16-15.968
			c0.128-4.896,6.784-18.848,16-34.368c9.216,15.52,15.84,29.44,16,34.336C272,456.8,264.8,464,256,464z"/>
	</g>
</g>
<g>
	<g>
		<path d="M125.152,374.912c-5.984-8.64-20.32-8.64-26.336,0C88.352,390.048,64,427.552,64,448c0,26.464,21.536,48,48,48
			s48-21.536,48-48C160,427.552,135.648,390.048,125.152,374.912z M112,464c-8.832,0-16-7.2-16-15.968
			c0.128-4.896,6.784-18.848,16-34.368c9.216,15.52,15.872,29.44,16,34.336C128,456.8,120.8,464,112,464z"/>
	</g>
</g>
<g>
</g>
<g>
</g>
<g>
</g>
<g>
</g>
<g>
</g>
<g>
</g>
<g>
</g>
<g>
</g>
<g>
</g>
<g>
</g>
<g>
</g>
<g>
</g>
<g>
</g>
<g>
</g>
<g>
</g>
</svg>
