<?xml version="1.0" encoding="iso-8859-1"?>
<!-- Generator: Adobe Illustrator 19.0.0, SVG Export Plug-In . SVG Version: 6.00 Build 0)  -->
<svg version="1.1" id="Capa_1" xmlns="http://www.w3.org/2000/svg" xmlns:xlink="http://www.w3.org/1999/xlink" x="0px" y="0px"
	 viewBox="0 0 512 512" style="enable-background:new 0 0 512 512;" xml:space="preserve">
<g>
	<g>
		<path d="M144,368H16c-8.832,0-16,7.168-16,16c0,8.832,7.168,16,16,16h128c8.832,0,16,7.2,16,16s-7.168,16-16,16
			c-8.832,0-16,7.168-16,16c0,8.832,7.168,16,16,16c26.464,0,48-21.536,48-48S170.464,368,144,368z"/>
	</g>
</g>
<g>
	<g>
		<path d="M208,240c-8.832,0-16,7.168-16,16c0,8.832,7.168,16,16,16c8.832,0,16,7.2,16,16s-7.168,16-16,16H16
			c-8.832,0-16,7.168-16,16c0,8.832,7.168,16,16,16h192c26.464,0,48-21.536,48-48S234.464,240,208,240z"/>
	</g>
</g>
<g>
	<g>
		<path d="M412.704,144.064c-7.872-39.648-30.912-75.232-64.544-98.848C321.344,26.08,289.504,16,256,16
			c-64.032,0-121.504,38.112-146.688,96.032C48.8,113.472,0,163.136,0,224c0,13.344,2.304,26.048,6.816,37.76
			c3.2,8.256,12.512,12.32,20.704,9.12c8.256-3.168,12.352-12.448,9.152-20.672C33.568,242.208,32,233.376,32,224
			c0-44.096,35.904-80,80-80c1.28,0,3.392,0,4.128,0.16c8.096,2.08,16.288-2.432,19.008-10.272C152.928,82.528,201.504,48,256,48
			c26.784,0,52.256,8.032,73.664,23.328c29.632,20.864,49.024,53.152,53.696,90.272c0,4.768,2.144,9.248,5.792,12.32
			c3.648,3.04,8.48,4.224,13.152,3.424c4.192-0.8,8.992-1.344,13.696-1.344c35.296,0,64,28.704,64,64c0,35.296-28.704,64-64,64H304
			c-8.832,0-16,7.168-16,16c0,8.832,7.168,16,16,16h112c52.928,0,96-43.072,96-96C512,185.984,468.48,142.176,412.704,144.064z"/>
	</g>
</g>
<g>
	<g>
		<path d="M317.152,374.912c-5.92-8.64-20.352-8.64-26.304,0C280.384,390.048,256,427.552,256,448c0,26.464,21.536,48,48,48
			s48-21.536,48-48C352,427.552,327.616,390.048,317.152,374.912z M304,464c-8.8,0-16-7.2-16-15.968
			c0.128-4.896,6.784-18.848,16-34.368c9.216,15.52,15.84,29.44,16,34.336C320,456.8,312.8,464,304,464z"/>
	</g>
</g>
<g>
	<g>
		<path d="M432,368c-8.832,0-16,7.168-16,16v96c0,8.832,7.168,16,16,16c8.832,0,16-7.168,16-16v-96C448,375.168,440.832,368,432,368
			z"/>
	</g>
</g>
<g>
	<g>
		<path d="M481.568,442.144l-83.136-48c-7.616-4.384-17.44-1.792-21.856,5.856c-4.416,7.68-1.792,17.44,5.856,21.856l83.136,48
			c2.528,1.472,5.28,2.144,8,2.144c5.504,0,10.912-2.88,13.856-8C491.84,456.32,489.216,446.56,481.568,442.144z"/>
	</g>
</g>
<g>
	<g>
		<path d="M487.424,400c-4.384-7.712-14.208-10.304-21.856-5.856l-83.136,48c-7.68,4.416-10.304,14.208-5.856,21.856
			c2.944,5.12,8.352,8,13.856,8c2.72,0,5.472-0.672,8-2.144l83.136-48C489.248,417.44,491.872,407.648,487.424,400z"/>
	</g>
</g>
<g>
</g>
<g>
</g>
<g>
</g>
<g>
</g>
<g>
</g>
<g>
</g>
<g>
</g>
<g>
</g>
<g>
</g>
<g>
</g>
<g>
</g>
<g>
</g>
<g>
</g>
<g>
</g>
<g>
</g>
</svg>
