<?xml version="1.0" encoding="iso-8859-1"?>
<!-- Generator: Adobe Illustrator 19.0.0, SVG Export Plug-In . SVG Version: 6.00 Build 0)  -->
<svg version="1.1" id="Capa_1" xmlns="http://www.w3.org/2000/svg" xmlns:xlink="http://www.w3.org/1999/xlink" x="0px" y="0px"
	 viewBox="0 0 512 512" style="enable-background:new 0 0 512 512;" xml:space="preserve">
<g>
	<g>
		<path d="M412.864,144.032C397.952,70.016,333.088,16,256,16c-64.032,0-121.504,38.112-146.688,96.032
			C48.8,113.472,0,163.136,0,224c0,61.76,50.24,112,112,112h32c8.832,0,16-7.168,16-16c0-8.832-7.168-16-16-16h-32
			c-44.096,0-80-35.872-80-80c0-44.096,35.904-80,80-80c1.28,0,3.392,0,4.128,0.16c8.096,2.08,16.288-2.432,19.008-10.272
			C152.928,82.528,201.504,48,256,48c66.016,0,120.8,49.536,127.456,115.232c0.416,4.448,2.72,8.512,6.304,11.2
			c3.584,2.656,8.16,3.68,12.544,2.912c4.192-0.8,8.992-1.344,13.696-1.344c35.296,0,64,28.704,64,64c0,35.296-28.704,64-64,64h-48
			c-8.832,0-16,7.168-16,16c0,8.832,7.168,16,16,16h48c52.928,0,96-43.072,96-96C512,186.016,468.8,142.88,412.864,144.032z"/>
	</g>
</g>
<g>
	<g>
		<path d="M317.248,311.04c-2.976-4.416-7.936-7.04-13.248-7.04h-48v-80c0-7.68-5.44-14.272-12.96-15.744
			c-7.424-1.376-15.04,2.624-17.888,9.792l-64,160c-1.984,4.928-1.376,10.496,1.6,14.912c2.976,4.416,7.936,7.04,13.248,7.04h48v80
			c0,7.648,5.44,14.24,12.96,15.712c1.024,0.192,2.016,0.288,3.04,0.288c6.432,0,12.384-3.904,14.848-10.048l64-160
			C320.8,321.024,320.224,315.456,317.248,311.04z M256,396.896V384c0-8.832-7.168-16-16-16h-40.384L224,307.104V320
			c0,8.832,7.168,16,16,16h40.384L256,396.896z"/>
	</g>
</g>
<g>
</g>
<g>
</g>
<g>
</g>
<g>
</g>
<g>
</g>
<g>
</g>
<g>
</g>
<g>
</g>
<g>
</g>
<g>
</g>
<g>
</g>
<g>
</g>
<g>
</g>
<g>
</g>
<g>
</g>
</svg>
