<?xml version="1.0" encoding="iso-8859-1"?>
<!-- Generator: Adobe Illustrator 19.0.0, SVG Export Plug-In . SVG Version: 6.00 Build 0)  -->
<svg version="1.1" id="Capa_1" xmlns="http://www.w3.org/2000/svg" xmlns:xlink="http://www.w3.org/1999/xlink" x="0px" y="0px"
	 viewBox="0 0 478.768 478.768" style="enable-background:new 0 0 478.768 478.768;" xml:space="preserve">
<g>
	<g>
		<path d="M47.384,78.768c0,52.512,96.608,80,192,80s192-27.488,192-80C431.384-26.256,47.384-26.256,47.384,78.768z
			 M239.384,126.768c-96.192,0-160-28.896-160-48s63.808-48,160-48s160,28.896,160,48S335.576,126.768,239.384,126.768z"/>
	</g>
</g>
<g>
	<g>
		<path d="M384.728,109.328l-23.2,22.08c5.248,5.472,5.856,9.12,5.856,11.36c0,19.584-56.096,48-144,48s-144-28.416-144-48
			c0-5.696,5.696-12.736,15.616-19.328L77.24,96.816c-24.672,16.416-29.856,34.048-29.856,45.952c0,51.968,90.656,80,176,80
			c85.312,0,176-28.032,176-80C399.384,130.768,394.456,119.536,384.728,109.328z"/>
	</g>
</g>
<g>
	<g>
		<path d="M364.824,168.176l-21.76,23.456c3.776,3.52,8.32,8.992,8.32,15.136c0,19.584-49.888,48-128,48
			c-78.144,0-128-28.416-128-48c0-6.144,4.512-11.616,8.32-15.168l-21.76-23.456c-12.128,11.264-18.56,24.608-18.56,38.624
			c0,45.6,68.768,80,160,80s160-34.4,160-80C383.384,192.752,376.984,179.44,364.824,168.176z"/>
	</g>
</g>
<g>
	<g>
		<path d="M353.24,233.84l-24.864,20.128c4.736,5.792,7.008,11.328,7.008,16.8c0,22.72-39.424,48-96,48s-96-25.28-96-48
			c0-3.008,0.544-5.44,1.632-7.456l-28.224-15.136c-3.584,6.72-5.408,14.304-5.408,22.592c0,44.864,56.224,80,128,80
			s128-35.136,128-80C367.384,257.872,362.648,245.424,353.24,233.84z"/>
	</g>
</g>
<g>
	<g>
		<path d="M348.952,290.544l-23.36,21.888c4.48,4.736,9.792,12.48,9.792,22.336c0,26.016-36.64,48-80,48s-80-21.984-80-48
			c0-3.712,0.768-7.168,2.304-10.464l-28.928-13.632c-3.552,7.552-5.376,15.648-5.376,24.096c0,44.864,49.216,80,112,80
			c62.816,0,112-35.136,112-80C367.384,318.736,361.016,303.44,348.952,290.544z"/>
	</g>
</g>
<g>
	<g>
		<path d="M332.952,379.248l-30.944,8.256c0.896,3.424,1.376,7.2,1.376,11.264c0,26.464-21.536,48-48,48s-48-21.536-48-48
			c0-4.032,0.48-7.808,1.408-11.232l-30.944-8.256c-1.632,6.144-2.464,12.672-2.464,19.488c0,44.128,35.904,80,80,80
			c44.128,0,80-35.872,80-80C335.384,391.92,334.584,385.36,332.952,379.248z"/>
	</g>
</g>
<g>
</g>
<g>
</g>
<g>
</g>
<g>
</g>
<g>
</g>
<g>
</g>
<g>
</g>
<g>
</g>
<g>
</g>
<g>
</g>
<g>
</g>
<g>
</g>
<g>
</g>
<g>
</g>
<g>
</g>
</svg>
